<svg  width="210" height="210" id="Layer_6" data-name="Layer 6" xmlns="http://www.w3.org/2000/svg" viewBox="0 0 1920 1080"><defs><style>.cls-1{fill:none;stroke:#000;stroke-linecap:round;stroke-miterlimit:10;stroke-width:11px;}</style></defs><path d="M907.29,307l-26.48,91.79h-6.18C824.33,280.52,759.9,235.5,690.17,235.5c-87.38,0-137.68,49.43-143,102.38C530.42,514.4,909.06,456.15,909.06,676.8c0,105-94.44,179.17-219.77,179.17-105,0-170.34-35.3-239.19-87.38L476.58,668h6.18c45,90,127.09,170.34,242.71,170.34,75,0,137.69-48.54,144.75-104.15,22.95-188-356.57-128-356.57-349.51C513.65,313.17,571,224,713.12,224,781.08,224,855.22,266.39,907.29,307Z"/><path d="M1424.48,292V792.42c0,30.89,6.18,44.13,19.42,52.08v6.17H1334.45V844.5c14.13-8,20.3-21.19,20.3-52.08V487.93H1047.61V792.42c0,30.89,6.18,44.13,19.42,52.08v6.17H957.58V844.5c14.13-8,20.3-21.19,20.3-52.08V292c0-30.89-6.17-44.13-20.3-52.07v-7.06H1067v7.06c-13.24,7.94-19.42,21.18-19.42,52.07V481.75h307.14V292c0-30.89-6.17-44.13-20.3-52.07v-7.06H1443.9v7.06C1430.66,247.86,1424.48,261.1,1424.48,292Z"/><path class="cls-1" d="M98.93,231.69c-8.77,78.9,35.06,157.8,96.42,171C212.89,345.66,160.29,244.84,98.93,231.69Zm230,184.71c-28.82-37.21-15.81-103.64,27.37-144.63C385.09,309,366.5,392.21,328.9,416.4Zm80.74,159.23c-19-43.08,9.74-104.38,61.56-133.71C490.16,485,452,561.26,409.64,575.63Zm-149.1,61.28c-33.87-8.78-56.41-53.77-49.64-97.51C244.76,548.18,271.66,605.59,260.54,636.91ZM197.05,402.64S305.35,447.09,331.36,482c36.68,49.24,20.13,115,12.21,146.52C320.69,719.45,288,721.24,294.73,775c6.1,48.85,54.94,67.16,97.68,73.27M258.1,634.63s61,48.84,52.22,77M336.5,653.5c10-32,74.22-79.92,74.22-79.92M319.15,469.79c-6.11-30.52,12.21-54.94,12.21-54.94"/><path class="cls-1" d="M1838.07,231.69c8.77,78.9-35.06,157.8-96.42,171C1724.11,345.66,1776.71,244.84,1838.07,231.69Zm-230,184.71c28.82-37.21,15.81-103.64-27.37-144.63C1551.91,309,1570.5,392.21,1608.1,416.4Zm-80.74,159.23c19-43.08-9.74-104.38-61.56-133.71C1446.84,485,1485,561.26,1527.36,575.63Zm149.1,61.28c33.87-8.78,56.41-53.77,49.64-97.51C1692.24,548.18,1665.34,605.59,1676.46,636.91ZM1740,402.64s-108.3,44.45-134.31,79.36c-36.68,49.24-20.13,115-12.21,146.52,22.88,90.93,55.57,92.72,48.84,146.52-6.1,48.85-54.94,67.16-97.68,73.27M1678.9,634.63s-61.05,48.84-52.22,77M1600.5,653.5c-10-32-74.22-79.92-74.22-79.92m91.57-103.79c6.11-30.52-12.21-54.94-12.21-54.94"/></svg>