<svg width="569" height="452" viewBox="0 0 569 452" fill="none" xmlns="http://www.w3.org/2000/svg">
<circle cx="240.803" cy="274.366" r="6.76056" transform="rotate(-90 240.803 274.366)" fill="#F2F2F2"/>
<circle cx="294.324" cy="274.366" r="6.76056" transform="rotate(-90 294.324 274.366)" fill="#F2F2F2"/>
<circle cx="347.846" cy="274.366" r="6.76056" transform="rotate(-90 347.846 274.366)" fill="#F2F2F2"/>
<circle cx="401.366" cy="274.366" r="6.76056" transform="rotate(-90 401.366 274.366)" fill="#F2F2F2"/>
<circle cx="454.888" cy="274.366" r="6.76056" transform="rotate(-90 454.888 274.366)" fill="#F2F2F2"/>
<circle cx="508.408" cy="274.366" r="6.76056" transform="rotate(-90 508.408 274.366)" fill="#F2F2F2"/>
<circle cx="561.93" cy="274.366" r="6.76056" transform="rotate(-90 561.93 274.366)" fill="#F2F2F2"/>
<circle cx="294.324" cy="220.845" r="6.76056" transform="rotate(-90 294.324 220.845)" fill="#F2F2F2"/>
<circle cx="347.846" cy="220.845" r="6.76056" transform="rotate(-90 347.846 220.845)" fill="#F2F2F2"/>
<circle cx="401.366" cy="220.845" r="6.76056" transform="rotate(-90 401.366 220.845)" fill="#F2F2F2"/>
<circle cx="454.888" cy="220.845" r="6.76056" transform="rotate(-90 454.888 220.845)" fill="#F2F2F2"/>
<circle cx="508.408" cy="220.845" r="6.76056" transform="rotate(-90 508.408 220.845)" fill="#F2F2F2"/>
<circle cx="561.93" cy="220.845" r="6.76056" transform="rotate(-90 561.93 220.845)" fill="#F2F2F2"/>
<circle cx="401.366" cy="167.324" r="6.76056" transform="rotate(-90 401.366 167.324)" fill="#F2F2F2"/>
<circle cx="454.888" cy="167.324" r="6.76056" transform="rotate(-90 454.888 167.324)" fill="#F2F2F2"/>
<circle cx="508.408" cy="167.324" r="6.76056" transform="rotate(-90 508.408 167.324)" fill="#F2F2F2"/>
<circle cx="561.93" cy="167.324" r="6.76056" transform="rotate(-90 561.93 167.324)" fill="#F2F2F2"/>
<circle cx="187.282" cy="113.803" r="6.76056" transform="rotate(-90 187.282 113.803)" fill="#F2F2F2"/>
<circle cx="240.803" cy="113.803" r="6.76056" transform="rotate(-90 240.803 113.803)" fill="#F2F2F2"/>
<circle cx="294.324" cy="113.803" r="6.76056" transform="rotate(-90 294.324 113.803)" fill="#F2F2F2"/>
<circle cx="401.366" cy="113.803" r="6.76056" transform="rotate(-90 401.366 113.803)" fill="#F2F2F2"/>
<circle cx="454.888" cy="113.803" r="6.76056" transform="rotate(-90 454.888 113.803)" fill="#F2F2F2"/>
<circle cx="508.408" cy="113.803" r="6.76056" transform="rotate(-90 508.408 113.803)" fill="#F2F2F2"/>
<circle cx="561.93" cy="113.803" r="6.76056" transform="rotate(-90 561.93 113.803)" fill="#F2F2F2"/>
<circle cx="133.761" cy="60.2819" r="6.76056" transform="rotate(-90 133.761 60.2819)" fill="#F2F2F2"/>
<circle cx="187.282" cy="60.2819" r="6.76056" transform="rotate(-90 187.282 60.2819)" fill="#F2F2F2"/>
<circle cx="240.803" cy="60.2819" r="6.76056" transform="rotate(-90 240.803 60.2819)" fill="#F2F2F2"/>
<circle cx="294.324" cy="60.2819" r="6.76056" transform="rotate(-90 294.324 60.2819)" fill="#F2F2F2"/>
<circle cx="347.846" cy="60.2819" r="6.76056" transform="rotate(-90 347.846 60.2819)" fill="#F2F2F2"/>
<circle cx="401.366" cy="60.2819" r="6.76056" transform="rotate(-90 401.366 60.2819)" fill="#F2F2F2"/>
<circle cx="454.888" cy="60.2819" r="6.76056" transform="rotate(-90 454.888 60.2819)" fill="#F2F2F2"/>
<circle cx="508.408" cy="60.2819" r="6.76056" transform="rotate(-90 508.408 60.2819)" fill="#F2F2F2"/>
<circle cx="561.93" cy="60.2819" r="6.76056" transform="rotate(-90 561.93 60.2819)" fill="#F2F2F2"/>
<circle cx="133.761" cy="6.76092" r="6.76056" transform="rotate(-90 133.761 6.76092)" fill="#F2F2F2"/>
<circle cx="187.282" cy="6.76092" r="6.76056" transform="rotate(-90 187.282 6.76092)" fill="#F2F2F2"/>
<circle cx="240.803" cy="6.76092" r="6.76056" transform="rotate(-90 240.803 6.76092)" fill="#F2F2F2"/>
<circle cx="294.324" cy="6.76092" r="6.76056" transform="rotate(-90 294.324 6.76092)" fill="#F2F2F2"/>
<circle cx="347.846" cy="6.76092" r="6.76056" transform="rotate(-90 347.846 6.76092)" fill="#F2F2F2"/>
<circle cx="401.366" cy="6.76092" r="6.76056" transform="rotate(-90 401.366 6.76092)" fill="#F2F2F2"/>
<circle cx="454.888" cy="6.76092" r="6.76056" transform="rotate(-90 454.888 6.76092)" fill="#F2F2F2"/>
<circle cx="508.408" cy="6.76092" r="6.76056" transform="rotate(-90 508.408 6.76092)" fill="#F2F2F2"/>
<circle cx="561.93" cy="6.76092" r="6.76056" transform="rotate(-90 561.93 6.76092)" fill="#F2F2F2"/>
<path d="M159.282 98.2719L152.368 105.686L150.145 120.514L164.467 126.445L178.789 134.106L198.05 143.003L217.063 145.227L226.447 153.135L237.064 154.618L254.103 158.325L265.461 158.078L265.708 151.9L262.004 141.767L261.51 135.095L269.165 131.635L272.869 144.238L273.857 147.204L287.438 153.382L295.34 150.911L306.946 151.9L318.057 151.405L316.823 141.767L310.403 136.577L320.774 134.6L330.404 122.738L343.738 112.853L355.837 116.56L363.739 109.887L372.629 119.772L369.666 126.445L384.728 128.916L387.198 134.847L383 137.813L386.457 147.451L376.086 144.733L360.776 155.607L362.998 164.75L358.06 178.095L358.801 185.757L354.85 198.855L343.491 195.148L345.713 211.705L343.244 217.142L345.713 223.815L339.54 227.522L328.675 202.314H324.971L324.231 212.694L315.341 204.291L318.304 195.395L324.231 194.406L328.181 181.061L319.786 178.343L307.192 178.59L293.858 176.366L290.895 165.245L284.228 164.503L272.129 157.584L269.165 168.457L280.524 176.86L273.116 182.791L270.894 188.475L280.03 192.676L279.289 202.314L285.71 214.177L289.66 227.275L288.426 233.206L279.042 232.959L262.745 236.171L264.968 248.034L259.041 257.425L240.521 268.299L227.434 286.833L218.051 296.966L205.704 307.345L206.445 314.512L200.025 318.466L188.173 324.15L181.752 324.892L178.789 337.001L183.481 357.76L185.209 370.858L180.518 385.933L182.246 412.871L175.085 413.612L169.406 425.721L174.097 431.158L161.504 435.607L157.306 446.233L151.874 450.929L138.046 436.101L130.391 413.859L124.218 397.796L118.785 390.382L110.39 375.059L105.451 355.289L101.994 345.404L87.4253 323.656L78.7827 292.765L72.3626 272.5L70.3871 253.224L66.1894 238.396L47.1757 248.034L37.2985 246.057L17.2973 226.78L23.2236 221.096L18.5319 214.918L1 201.326L8.90162 190.699H38.7803L34.3355 177.107L25.6929 169.199L22.2359 156.842L12.3587 149.922L24.4583 133.118L40.5087 134.353L51.6205 117.795L57.0528 101.732L66.6832 85.6682L64.2139 74.3001L73.5973 65.1563L61.004 57.4952L53.8429 46.6214L45.6942 32.782L50.6327 25.8624L71.6217 29.8164L85.6969 27.3451L95.08 14L114.094 32.782L116.069 45.6329L123.477 53.7882L124.958 61.9435L114.834 59.7194L122.736 77.2657L138.046 87.151L159.282 98.2719Z" fill="url(#paint0_linear_1_2)" stroke="black" stroke-width="0.2" stroke-linecap="round" stroke-linejoin="round"/>
<path d="M118 307C119.1 307 120.042 306.608 120.826 305.824C121.609 305.041 122 304.1 122 303C122 301.9 121.609 300.958 120.826 300.174C120.042 299.391 119.1 299 118 299C116.9 299 115.959 299.391 115.176 300.174C114.392 300.958 114 301.9 114 303C114 304.1 114.392 305.041 115.176 305.824C115.959 306.608 116.9 307 118 307ZM118 327C112.633 322.433 108.625 318.191 105.976 314.274C103.325 310.358 102 306.733 102 303.4C102 298.4 103.609 294.417 106.826 291.45C110.042 288.483 113.767 287 118 287C122.233 287 125.958 288.483 129.174 291.45C132.391 294.417 134 298.4 134 303.4C134 306.733 132.675 310.358 130.026 314.274C127.375 318.191 123.367 322.433 118 327Z" fill="#B91919"/>
<path d="M77 252C78.1 252 79.042 251.608 79.826 250.824C80.6087 250.041 81 249.1 81 248C81 246.9 80.6087 245.958 79.826 245.174C79.042 244.391 78.1 244 77 244C75.9 244 74.9587 244.391 74.176 245.174C73.392 245.958 73 246.9 73 248C73 249.1 73.392 250.041 74.176 250.824C74.9587 251.608 75.9 252 77 252ZM77 272C71.6333 267.433 67.6253 263.191 64.976 259.274C62.3253 255.358 61 251.733 61 248.4C61 243.4 62.6087 239.417 65.826 236.45C69.042 233.483 72.7667 232 77 232C81.2333 232 84.958 233.483 88.174 236.45C91.3913 239.417 93 243.4 93 248.4C93 251.733 91.6753 255.358 89.026 259.274C86.3753 263.191 82.3667 267.433 77 272Z" fill="#B91919"/>
<path d="M153.2 371C154.52 371 155.65 370.53 156.591 369.589C157.53 368.65 158 367.52 158 366.2C158 364.88 157.53 363.75 156.591 362.809C155.65 361.87 154.52 361.4 153.2 361.4C151.88 361.4 150.75 361.87 149.811 362.809C148.87 363.75 148.4 364.88 148.4 366.2C148.4 367.52 148.87 368.65 149.811 369.589C150.75 370.53 151.88 371 153.2 371ZM153.2 395C146.76 389.52 141.95 384.43 138.771 379.729C135.59 375.03 134 370.68 134 366.68C134 360.68 135.93 355.9 139.791 352.34C143.65 348.78 148.12 347 153.2 347C158.28 347 162.75 348.78 166.609 352.34C170.47 355.9 172.4 360.68 172.4 366.68C172.4 370.68 170.81 375.03 167.631 379.729C164.45 384.43 159.64 389.52 153.2 395Z" fill="#B91919"/>
<defs>
<linearGradient id="paint0_linear_1_2" x1="1" y1="236.586" x2="387.198" y2="236.586" gradientUnits="userSpaceOnUse">
<stop stop-color="#2283C2"/>
<stop offset="0.50089" stop-color="#398058"/>
<stop offset="1" stop-color="#D1A455"/>
</linearGradient>
</defs>
</svg>
