<svg width="30" height="34" viewBox="0 0 30 34" fill="none" xmlns="http://www.w3.org/2000/svg">
<path d="M3.33301 33.6663V21.1663H0.833008V11.9997C0.833008 10.1663 2.33301 8.66634 4.16634 8.66634H9.16634C10.9997 8.66634 12.4997 10.1663 12.4997 11.9997V21.1663H9.99967V33.6663H3.33301ZM24.1663 33.6663V23.6663H29.1663L24.933 10.9497C24.4663 9.58301 23.1997 8.66634 21.7663 8.66634H21.5663C20.133 8.66634 18.8497 9.58301 18.3997 10.9497L14.1663 23.6663H19.1663V33.6663H24.1663ZM6.66634 6.99967C8.51634 6.99967 9.99967 5.51634 9.99967 3.66634C9.99967 1.81634 8.51634 0.333008 6.66634 0.333008C4.81634 0.333008 3.33301 1.81634 3.33301 3.66634C3.33301 5.51634 4.81634 6.99967 6.66634 6.99967ZM21.6663 6.99967C23.5163 6.99967 24.9997 5.51634 24.9997 3.66634C24.9997 1.81634 23.5163 0.333008 21.6663 0.333008C19.8163 0.333008 18.333 1.81634 18.333 3.66634C18.333 5.51634 19.8163 6.99967 21.6663 6.99967Z" fill="#74B892"/>
</svg>
