<svg id="Logo_Full" data-name="Logo Full" xmlns="http://www.w3.org/2000/svg" viewBox="0 0 1920 1080"><defs><style>.cls-1{fill:none;stroke:#000;stroke-linecap:round;stroke-miterlimit:10;stroke-width:9px;}.cls-2{font-size:136.06px;font-family:NewYork;letter-spacing:0.2em;}.cls-3{letter-spacing:0.19em;}.cls-4{letter-spacing:0.2em;}.cls-5{letter-spacing:0.15em;}.cls-6{letter-spacing:0.2em;}.cls-7{letter-spacing:0.19em;}</style></defs><path d="M919.88,206l-20.76,72h-4.85c-39.45-92.75-90-128.06-144.66-128.06-68.52,0-108,38.77-112.13,80.3C624.33,368.62,921.27,322.94,921.27,496c0,82.37-74.06,140.51-172.35,140.51-82.37,0-133.59-27.69-187.58-68.53l20.77-78.9H587c35.3,70.6,99.67,133.59,190.35,133.59,58.83,0,108-38.07,113.51-81.68,18-147.43-279.63-100.36-279.63-274.1,0-56.06,45-126,156.43-126C820.9,140.9,879.05,174.12,919.88,206Z"/><path d="M1325.48,194.19V586.65c0,24.23,4.85,34.61,15.23,40.84v4.85h-85.83v-4.85c11.08-6.23,15.92-16.61,15.92-40.84V347.86H1029.93V586.65c0,24.23,4.84,34.61,15.22,40.84v4.85H959.33v-4.85c11.07-6.23,15.92-16.61,15.92-40.84V194.19c0-24.22-4.85-34.6-15.92-40.83v-5.54h85.82v5.54c-10.38,6.23-15.22,16.61-15.22,40.83V343H1270.8V194.19c0-24.22-4.84-34.6-15.92-40.83v-5.54h85.83v5.54C1330.33,159.59,1325.48,170,1325.48,194.19Z"/><path class="cls-1" d="M285.93,146.91c-6.87,61.87,27.5,123.74,75.63,134.06C375.3,236.28,334.06,157.22,285.93,146.91ZM466.29,291.76c-22.61-29.18-12.4-81.28,21.46-113.43C510.35,207.51,495.78,272.79,466.29,291.76Zm63.32,124.88c-14.87-33.79,7.64-81.86,48.27-104.86C592.75,345.56,562.81,405.36,529.61,416.64ZM412.67,464.7c-26.56-6.89-44.23-42.18-38.93-76.48C400.3,395.11,421.4,440.13,412.67,464.7ZM362.88,281s84.94,34.86,105.33,62.24C497,381.82,484,433.43,477.79,458.12c-17.94,71.3-43.58,72.71-38.3,114.9,4.78,38.31,43.09,52.67,76.6,57.46M410.76,462.9s47.88,38.31,41,60.36m20.53-45.56c7.84-25.09,58.21-62.67,58.21-62.67m-71.82-81.4c-4.79-23.94,9.57-43.09,9.57-43.09"/><path class="cls-1" d="M1649.84,146.91c6.88,61.87-27.5,123.74-75.62,134.06C1560.47,236.28,1601.72,157.22,1649.84,146.91ZM1469.49,291.76c22.6-29.18,12.39-81.28-21.47-113.43C1425.42,207.51,1440,272.79,1469.49,291.76Zm-63.32,124.88c14.87-33.79-7.65-81.86-48.28-104.86C1343,345.56,1373,405.36,1406.17,416.64ZM1523.1,464.7c26.56-6.89,44.23-42.18,38.93-76.48C1535.47,395.11,1514.37,440.13,1523.1,464.7ZM1572.89,281s-84.94,34.86-105.33,62.24c-28.77,38.61-15.79,90.22-9.58,114.91,17.94,71.3,43.58,72.71,38.31,114.9-4.79,38.31-43.09,52.67-76.61,57.46M1525,462.9s-47.88,38.31-41,60.36m-20.52-45.56c-7.85-25.09-58.21-62.67-58.21-62.67m71.81-81.4c4.79-23.94-9.57-43.09-9.57-43.09"/><text class="cls-2" transform="translate(126 862.94)">Spa<tspan class="cls-3" x="307.9" y="0">ni</tspan><tspan class="cls-4" x="461.38" y="0">sh </tspan><tspan class="cls-5" x="712" y="0">F</tspan><tspan class="cls-6" x="796.22" y="0">or Huma</tspan><tspan class="cls-7" x="1493.93" y="0">n</tspan><tspan class="cls-6" x="1595.16" y="0">s</tspan></text></svg>