<svg  width="550"  xmlns="http://www.w3.org/2000/svg" viewBox="0 0 1920 272"><defs><style>.cls-1{fill:none;stroke:#000;stroke-linecap:round;stroke-miterlimit:10;stroke-width:4px;}.cls-2{font-size:97.45px;font-family:NewYork;letter-spacing:0.2em;}.cls-3{letter-spacing:0.19em;}.cls-4{letter-spacing:0.2em;}.cls-5{letter-spacing:0.15em;}.cls-6{letter-spacing:0.19em;}.cls-7{letter-spacing:0.2em;}</style></defs><g id="Logo_Square" data-name="Logo Square"><path d="M331.48,70.52,324,96.31h-1.73c-14.14-33.23-32.25-45.88-51.84-45.88-24.56,0-38.69,13.89-40.18,28.77C225.57,128.81,332,112.44,332,174.44c0,29.52-26.54,50.36-61.76,50.36-29.52,0-47.87-9.93-67.22-24.56L210.44,172h1.74c12.65,25.3,35.72,47.87,68.21,47.87,21.08,0,38.69-13.64,40.68-29.26,6.45-52.83-100.21-36-100.21-98.22,0-20.09,16.12-45.15,56.06-45.15C296,47.2,316.85,59.11,331.48,70.52Z"/><path d="M476.83,66.3V206.94c0,8.68,1.73,12.4,5.45,14.63v1.74H451.53v-1.74c4-2.23,5.7-5.95,5.7-14.63V121.37H370.92v85.57c0,8.68,1.73,12.4,5.45,14.63v1.74H345.62v-1.74c4-2.23,5.7-5.95,5.7-14.63V66.3c0-8.68-1.73-12.4-5.7-14.63v-2h30.75v2c-3.72,2.23-5.45,5.95-5.45,14.63v53.33h86.31V66.3c0-8.68-1.73-12.4-5.7-14.63v-2h30.75v2C478.56,53.9,476.83,57.62,476.83,66.3Z"/><path class="cls-1" d="M104.31,49.36c-2.46,22.17,9.86,44.34,27.1,48C136.34,81.38,121.56,53.05,104.31,49.36Zm64.63,51.9c-8.1-10.45-4.44-29.12,7.69-40.64C184.73,71.08,179.51,94.47,168.94,101.26ZM191.63,146c-5.33-12.1,2.74-29.33,17.3-37.57C214.26,120.54,203.53,142,191.63,146Zm-41.9,17.23c-9.52-2.47-15.85-15.12-13.95-27.41C145.3,138.3,152.86,154.43,149.73,163.24ZM131.89,97.4s30.43,12.49,37.74,22.3c10.31,13.84,5.66,32.33,3.43,41.18-6.42,25.55-15.61,26.05-13.72,41.17,1.71,13.73,15.44,18.88,27.45,20.59m-37.75-60s17.16,13.73,14.68,21.63m7.36-16.32c2.81-9,20.86-22.46,20.86-22.46M166.2,116.27c-1.71-8.58,3.43-15.44,3.43-15.44"/><path class="cls-1" d="M593.06,49.36c2.46,22.17-9.86,44.34-27.1,48C561,81.38,575.81,53.05,593.06,49.36Zm-64.63,51.9c8.1-10.45,4.44-29.12-7.69-40.64C512.64,71.08,517.86,94.47,528.43,101.26ZM505.74,146c5.33-12.1-2.74-29.33-17.3-37.57C483.11,120.54,493.84,142,505.74,146Zm41.9,17.23c9.52-2.47,15.85-15.12,14-27.41C552.07,138.3,544.52,154.43,547.64,163.24ZM565.48,97.4s-30.43,12.49-37.74,22.3c-10.31,13.84-5.66,32.33-3.43,41.18,6.43,25.55,15.61,26.05,13.72,41.17-1.71,13.73-15.44,18.88-27.45,20.59m37.75-60s-17.16,13.73-14.68,21.63m-7.36-16.32c-2.81-9-20.85-22.46-20.85-22.46m25.73-29.17c1.72-8.58-3.43-15.44-3.43-15.44"/><text class="cls-2" transform="translate(632.44 164.41)">Spa<tspan class="cls-3" x="220.52" y="0">ni</tspan><tspan class="cls-4" x="330.43" y="0">sh </tspan><tspan class="cls-5" x="509.93" y="0">F</tspan><tspan x="570.24" y="0">or Huma</tspan><tspan class="cls-6" x="1069.94" y="0">n</tspan><tspan class="cls-7" x="1142.44" y="0">s</tspan></text></g></svg>